<?xml version="1.0" standalone="no"?>
<!DOCTYPE svg PUBLIC "-//W3C//DTD SVG 20010904//EN"
 "http://www.w3.org/TR/2001/REC-SVG-20010904/DTD/svg10.dtd">
<svg version="1.0" xmlns="http://www.w3.org/2000/svg"
 width="512.000000pt" height="512.000000pt" viewBox="0 0 512.000000 512.000000"
 preserveAspectRatio="xMidYMid meet">
<metadata>
Created by potrace 1.16, written by Peter Selinger 2001-2019
</metadata>
<g transform="translate(0.000000,512.000000) scale(0.100000,-0.100000)"
fill="#000000" stroke="none">
<path d="M1700 4676 c0 -3 19 -20 43 -37 35 -27 38 -31 16 -25 -39 9 -83 -10
-105 -47 -38 -63 -12 -337 46 -490 14 -37 20 -77 20 -135 0 -51 6 -96 15 -119
21 -49 19 -76 -10 -133 -78 -153 -74 -415 9 -597 22 -48 28 -53 58 -54 30 -2
30 -2 6 -6 -26 -4 -27 -5 -12 -28 15 -22 16 -23 67 -9 29 8 81 16 117 19 52 4
43 1 -44 -15 -60 -11 -112 -22 -115 -25 -3 -3 4 -14 15 -24 19 -19 21 -19 94
-1 41 10 111 25 155 34 l80 15 -75 -4 c-60 -3 -67 -2 -35 5 22 5 57 9 78 9 20
1 37 4 37 9 0 4 -28 6 -62 5 l-63 -1 66 11 c51 9 74 20 108 48 23 20 69 51
102 69 58 30 62 35 99 117 44 95 49 139 25 219 -8 27 -15 56 -15 65 0 9 23 50
51 91 46 69 52 85 64 165 l12 88 3 -75 3 -75 6 60 6 60 7 -58 c7 -57 14 -76
74 -184 l29 -52 -23 -63 c-29 -81 -29 -142 0 -188 13 -19 34 -57 48 -85 21
-41 37 -57 95 -92 39 -23 82 -55 96 -70 22 -26 37 -31 135 -46 99 -15 56 -16
-58 -2 -69 9 -11 -12 100 -36 52 -11 104 -25 116 -30 24 -11 30 -12 -146 26
-60 13 -108 19 -108 14 0 -5 10 -9 23 -10 l22 -1 -23 -7 c-18 -5 -3 -12 70
-35 51 -16 96 -29 101 -28 4 1 7 -3 7 -9 0 -5 5 -7 10 -4 6 3 10 1 10 -5 0 -6
4 -9 9 -5 6 3 14 -2 19 -11 8 -14 13 -11 35 17 24 31 25 35 9 41 -14 5 -13 7
5 7 20 1 63 43 63 62 0 4 -8 10 -17 12 -11 3 -8 5 9 6 23 1 32 10 53 52 82
162 87 395 13 604 l-21 60 22 63 c18 53 20 76 15 140 -5 66 -3 84 16 127 26
60 54 174 75 308 24 147 -2 218 -85 232 l-39 7 28 26 c15 15 18 20 6 11 -11
-9 -41 -26 -67 -37 -27 -12 -48 -26 -48 -33 0 -7 -3 -9 -6 -6 -10 9 -90 -51
-136 -103 -88 -97 -235 -242 -266 -262 -42 -26 -73 -31 -152 -27 -85 4 -199 4
-280 0 -133 -8 -124 -13 -325 191 -157 159 -190 189 -260 226 -44 23 -90 50
-102 58 -13 9 -23 14 -23 10z m165 -116 c10 -11 16 -20 13 -20 -3 0 -13 9 -23
20 -10 11 -16 20 -13 20 3 0 13 -9 23 -20z m-65 -52 c0 -4 7 -8 15 -8 8 0 15
-4 15 -10 0 -5 6 -10 14 -10 7 0 30 -19 50 -42 19 -24 48 -56 63 -72 l28 -28
-37 23 c-20 13 -34 27 -32 31 2 3 -1 10 -7 14 -8 4 -9 3 -5 -4 10 -16 1 -15
-34 3 -45 23 -36 12 20 -24 28 -18 48 -36 45 -41 -3 -4 3 -7 13 -6 9 0 16 -5
14 -12 -1 -8 2 -11 8 -7 11 7 55 -20 55 -34 0 -5 11 -18 25 -30 18 -16 9 -13
-32 9 -34 19 -77 33 -105 35 l-48 5 30 -17 c27 -15 28 -17 10 -24 -20 -8 -20
-8 0 -9 30 -1 107 -38 101 -49 -3 -5 4 -11 17 -15 12 -3 38 -19 57 -35 l35
-30 -60 30 c-68 33 -144 50 -219 48 l-51 -2 65 -8 c45 -6 93 -22 158 -54 52
-26 92 -48 90 -50 -2 -2 -36 8 -77 21 -40 13 -79 24 -85 24 -15 0 34 -25 78
-40 60 -20 50 -29 -26 -24 -75 4 -81 0 -17 -10 19 -4 43 -12 53 -19 14 -10 4
-12 -61 -10 l-78 2 62 -9 c61 -8 125 -32 78 -29 -11 1 -51 0 -90 -1 -61 -2
-65 -3 -32 -10 38 -7 61 -20 36 -20 -12 0 -12 -2 0 -9 11 -7 5 -11 -23 -17
-27 -4 -34 -9 -24 -15 10 -7 8 -10 -9 -15 -13 -4 -20 -11 -16 -20 3 -8 0 -14
-7 -14 -6 0 -9 -4 -6 -9 10 -16 -46 -3 -66 16 -30 27 -38 56 -26 97 10 31 8
42 -19 98 -17 35 -37 88 -44 118 -19 77 -17 245 4 293 15 36 19 38 57 35 22
-1 40 -6 40 -10z m1586 -20 c13 -25 17 -58 17 -138 -1 -118 -18 -196 -62 -290
-23 -49 -28 -67 -20 -87 19 -50 2 -84 -55 -115 -16 -9 -18 -7 -13 11 4 18 3
19 -15 10 -15 -8 -19 -8 -13 1 4 7 -1 14 -15 17 -16 4 -18 8 -8 14 9 6 3 12
-21 20 l-34 12 24 13 24 12 -25 6 c-14 2 -43 8 -65 12 l-40 7 30 9 c17 5 44
14 60 19 27 8 26 8 -10 4 -22 -3 -51 -7 -65 -10 -22 -5 -22 -4 -5 4 14 7 15
10 5 11 -24 1 13 20 63 30 l42 9 -50 -4 c-27 -2 -62 -6 -77 -9 -16 -2 -28 -2
-28 0 0 2 21 18 48 35 47 31 27 32 -32 2 -15 -8 -25 -10 -21 -4 9 16 119 71
185 93 l55 18 -45 -6 c-25 -4 -71 -15 -104 -25 -32 -11 -61 -19 -65 -19 -14 1
37 25 89 42 l55 18 -50 -7 c-27 -3 -69 -14 -92 -24 -56 -24 -55 -17 2 17 67
39 142 66 210 75 59 8 41 7 -122 -4 -11 -1 -19 -5 -16 -9 5 -10 -11 -10 -21
-1 -4 4 3 16 16 26 l23 18 -25 -7 c-14 -4 -35 -8 -48 -10 -19 -2 -21 0 -11 12
13 16 23 19 14 4 -3 -5 -2 -10 2 -10 11 0 163 89 163 96 0 3 -33 -12 -73 -33
l-74 -39 104 103 c91 91 108 103 138 103 29 0 37 -5 51 -32z m-1381 -68 c27
-27 47 -50 44 -50 -3 0 -27 23 -54 50 -27 28 -47 50 -44 50 3 0 27 -22 54 -50z
m1045 -75 c-24 -25 -46 -45 -49 -45 -3 0 15 20 39 45 24 25 46 45 49 45 3 0
-15 -20 -39 -45z m-929 -52 c13 -16 12 -17 -3 -4 -10 7 -18 15 -18 17 0 8 8 3
21 -13z m869 -16 c0 -2 -10 -12 -22 -23 l-23 -19 19 23 c18 21 26 27 26 19z
m-68 -96 c-15 -27 -28 -48 -30 -46 -6 6 43 95 53 95 2 0 -9 -22 -23 -49z
m-712 -38 c11 -30 19 -61 16 -67 -2 -6 -5 -4 -5 4 -1 8 -12 41 -25 72 -13 32
-20 55 -15 53 4 -3 17 -31 29 -62z m368 40 c-15 -2 -42 -2 -60 0 -18 2 -6 4
27 4 33 0 48 -2 33 -4z m-105 -10 c-7 -2 -21 -2 -30 0 -10 3 -4 5 12 5 17 0
24 -2 18 -5z m195 0 c-10 -2 -28 -2 -40 0 -13 2 -5 4 17 4 22 1 32 -1 23 -4z
m219 -100 c-3 -10 -5 -2 -5 17 0 19 2 27 5 18 2 -10 2 -26 0 -35z m-650 -35
c-3 -8 -6 -5 -6 6 -1 11 2 17 5 13 3 -3 4 -12 1 -19z m640 -40 c-3 -7 -5 -2
-5 12 0 14 2 19 5 13 2 -7 2 -19 0 -25z m-630 0 c-3 -8 -6 -5 -6 6 -1 11 2 17
5 13 3 -3 4 -12 1 -19z m460 -20 c-3 -7 -5 -2 -5 12 0 14 2 19 5 13 2 -7 2
-19 0 -25z m160 -30 c-3 -8 -6 -5 -6 6 -1 11 2 17 5 13 3 -3 4 -12 1 -19z
m-579 -73 c0 -5 -6 4 -13 20 -8 17 -14 37 -14 45 0 8 7 -1 14 -20 7 -19 13
-39 13 -45z m-108 30 c19 -19 32 -35 29 -35 -3 0 -20 16 -39 35 -19 19 -32 35
-29 35 3 0 20 -16 39 -35z m692 -18 c-18 -19 -51 -67 -72 -108 -22 -41 -40
-71 -40 -66 0 13 72 152 81 155 5 2 6 9 3 14 -4 6 -2 8 3 5 6 -4 18 2 28 13
10 11 21 20 24 20 2 0 -10 -15 -27 -33z m-552 -92 c0 -5 -5 -3 -10 5 -5 8 -10
20 -10 25 0 6 5 3 10 -5 5 -8 10 -19 10 -25z m-223 -11 c-3 -3 -12 -4 -19 -1
-8 3 -5 6 6 6 11 1 17 -2 13 -5z m970 0 c-3 -3 -12 -4 -19 -1 -8 3 -5 6 6 6
11 1 17 -2 13 -5z m-899 -23 c20 -11 53 -34 72 -51 l35 -32 -41 31 c-23 17
-62 40 -85 51 -24 11 -38 20 -31 20 7 0 29 -9 50 -19z m172 -16 c0 -5 -5 -3
-10 5 -5 8 -10 20 -10 25 0 6 5 3 10 -5 5 -8 10 -19 10 -25z m663 28 c-7 -2
-19 -2 -25 0 -7 3 -2 5 12 5 14 0 19 -2 13 -5z m134 1 c-3 -3 -12 -4 -19 -1
-8 3 -5 6 6 6 11 1 17 -2 13 -5z m-227 -28 c0 -2 -12 -11 -27 -20 l-28 -17 24
20 c23 21 31 25 31 17z m-619 -93 c13 -16 12 -17 -3 -4 -10 7 -18 15 -18 17 0
8 8 3 21 -13z m-83 -33 c42 -26 41 -33 -2 -15 -41 17 -86 20 -191 12 -73 -6
-75 -5 -21 3 32 5 61 12 64 15 14 14 119 4 150 -15z m867 6 c62 -18 46 -19
-42 -5 -60 10 -75 9 -125 -8 -59 -20 -69 -11 -14 13 40 17 118 17 181 0z
m-907 -52 c14 -4 21 -12 18 -20 -3 -7 2 -17 11 -22 20 -11 9 -32 -17 -32 -27
0 -37 -73 -16 -120 l15 -35 21 48 c16 36 21 63 18 107 -3 52 -1 57 14 49 30
-16 88 -82 94 -106 8 -31 -11 -74 -46 -108 -21 -20 -42 -29 -78 -33 -95 -9
-162 48 -170 143 -4 47 -1 55 27 88 18 20 42 38 54 40 12 2 24 5 27 6 3 0 15
-2 28 -5z m859 -26 c48 -45 49 -132 3 -191 -48 -60 -155 -76 -210 -31 -36 31
-60 73 -60 107 0 36 52 101 101 126 55 28 130 23 166 -11z m-1117 -18 c-8 -5
-19 -10 -25 -10 -5 0 -3 5 5 10 8 5 20 10 25 10 6 0 3 -5 -5 -10z m1186 -105
c-10 -49 -61 -114 -109 -136 -50 -22 -111 -24 -152 -3 -16 8 -22 12 -12 9 80
-22 140 -14 193 27 29 24 73 109 75 148 1 19 3 20 6 7 3 -11 2 -34 -1 -52z
m-1051 -61 c42 -54 81 -74 150 -75 51 0 56 -2 35 -10 -34 -14 -105 -3 -147 22
-46 29 -81 84 -88 139 l-5 45 14 -43 c8 -23 26 -59 41 -78z m310 -42 c-3 -3
-5 2 -5 11 0 8 -4 17 -10 19 -5 2 -6 14 -3 28 6 23 8 22 15 -14 5 -21 6 -41 3
-44z m372 46 c-3 -7 -5 -2 -5 12 0 14 2 19 5 13 2 -7 2 -19 0 -25z m-780 -148
c21 -18 29 -27 18 -22 -38 19 -115 118 -115 147 0 6 13 -13 30 -41 16 -29 46
-66 67 -84z m1275 73 c-11 -21 -32 -49 -47 -63 -23 -21 -22 -17 8 22 19 26 39
57 42 69 4 11 9 18 12 16 2 -3 -4 -22 -15 -44z m-96 -98 c-11 -8 -25 -15 -30
-15 -6 1 0 7 14 15 32 19 40 18 16 0z m-1123 -152 c-29 -2 -78 -2 -110 0 -32
2 -8 3 52 3 61 0 87 -1 58 -3z m1120 0 c-13 -2 -33 -2 -45 0 -13 2 -3 4 22 4
25 0 35 -2 23 -4z m100 -10 c-7 -2 -21 -2 -30 0 -10 3 -4 5 12 5 17 0 24 -2
18 -5z m-50 -30 c-7 -2 -19 -2 -25 0 -7 3 -2 5 12 5 14 0 19 -2 13 -5z m54 -9
c-3 -3 -12 -4 -19 -1 -8 3 -5 6 6 6 11 1 17 -2 13 -5z m-1240 -10 c-3 -3 -12
-4 -19 -1 -8 3 -5 6 6 6 11 1 17 -2 13 -5z m1020 -10 c-3 -3 -12 -4 -19 -1 -8
3 -5 6 6 6 11 1 17 -2 13 -5z"/>
<path d="M1820 4440 c8 -5 20 -10 25 -10 6 0 3 5 -5 10 -8 5 -19 10 -25 10 -5
0 -3 -5 5 -10z"/>
<path d="M1768 4343 c7 -3 16 -2 19 1 4 3 -2 6 -13 5 -11 0 -14 -3 -6 -6z"/>
<path d="M1808 4333 c6 -2 18 -2 25 0 6 3 1 5 -13 5 -14 0 -19 -2 -12 -5z"/>
<path d="M1992 4294 c10 -10 20 -16 22 -13 3 3 -5 11 -17 18 -21 13 -21 12 -5
-5z"/>
<path d="M1858 4263 c7 -3 16 -2 19 1 4 3 -2 6 -13 5 -11 0 -14 -3 -6 -6z"/>
<path d="M1868 4133 c6 -2 18 -2 25 0 6 3 1 5 -13 5 -14 0 -19 -2 -12 -5z"/>
<path d="M3196 4402 c-3 -5 1 -9 9 -9 8 0 12 4 9 9 -3 4 -7 8 -9 8 -2 0 -6 -4
-9 -8z"/>
<path d="M3218 4153 c7 -3 16 -2 19 1 4 3 -2 6 -13 5 -11 0 -14 -3 -6 -6z"/>
<path d="M3060 4070 c-8 -5 -10 -10 -5 -10 6 0 17 5 25 10 8 5 11 10 5 10 -5
0 -17 -5 -25 -10z"/>
<path d="M3208 4063 c7 -3 16 -2 19 1 4 3 -2 6 -13 5 -11 0 -14 -3 -6 -6z"/>
<path d="M2897 3563 c-12 -11 -8 -135 5 -170 15 -42 24 -42 36 0 19 62 21 77
7 77 -16 0 -25 22 -25 66 0 32 -8 42 -23 27z"/>
<path d="M2437 3154 c-36 -20 -32 -46 11 -59 18 -5 35 -18 38 -30 4 -11 17
-34 30 -51 34 -44 30 -71 -15 -114 -43 -41 -114 -70 -173 -70 -48 0 -120 28
-111 44 4 6 -1 5 -10 -3 -15 -12 -21 -9 -19 11 1 3 -5 11 -12 17 -10 8 -30 2
-83 -24 -38 -19 -78 -44 -88 -55 -17 -19 -16 -20 55 -54 l73 -35 36 51 c20 28
42 53 49 54 7 1 8 0 2 -3 -13 -6 -70 -89 -70 -101 0 -6 63 -31 140 -57 77 -27
148 -54 158 -62 15 -13 8 -14 -58 -9 -41 3 -87 9 -102 12 -23 5 -29 2 -38 -21
-12 -32 -5 -66 21 -94 19 -20 19 -21 -1 -53 -23 -38 -25 -48 -7 -48 20 0 143
65 185 99 33 25 49 31 90 31 42 0 59 -7 118 -46 65 -44 144 -84 165 -84 12 0
-14 52 -34 69 -13 10 -11 16 14 41 33 33 40 88 13 114 -17 17 -26 18 -64 6
-25 -8 -25 -8 5 -10 17 -1 24 -4 17 -7 -7 -3 -29 -2 -49 2 -27 5 -33 9 -22 16
11 7 8 9 -11 10 -14 0 21 16 77 34 56 18 145 49 198 70 84 33 94 40 83 54 -11
14 -11 14 4 3 13 -10 22 -11 37 -2 24 12 26 21 9 40 -11 12 -10 12 5 1 15 -12
22 -12 42 -1 26 14 34 46 13 48 -7 0 -51 14 -98 31 -103 37 -123 38 -138 7
-10 -22 -7 -26 37 -55 27 -17 55 -38 62 -48 8 -9 -8 0 -35 20 -27 20 -53 38
-57 38 -40 6 -66 2 -62 -8 7 -17 -61 -43 -111 -43 -51 0 -155 48 -184 85 -27
35 -28 76 -2 100 11 10 20 23 20 29 0 6 -5 5 -12 -2 -18 -18 -26 -15 -31 16
l-4 27 -2 -28 c-1 -21 -5 -28 -18 -25 -13 2 -20 16 -23 43 -5 38 -7 40 -37 39
-37 -2 -41 6 -15 29 35 32 210 16 199 -17 -2 -6 -13 -11 -25 -11 -27 -1 -45
-18 -40 -38 2 -13 10 -11 42 11 22 15 41 32 43 38 12 37 -172 60 -230 28z
m563 -249 c17 -9 30 -18 30 -21 0 -4 -59 23 -69 32 -10 9 13 3 39 -11z m-265
-98 c22 -1 54 1 70 6 28 7 27 4 -20 -38 -129 -115 -242 -139 -365 -77 -36 18
-86 51 -111 75 l-46 42 66 -3 c61 -4 72 -1 141 35 l75 40 75 -40 c46 -23 91
-39 115 -40z m345 47 c0 -2 -9 0 -20 6 -11 6 -20 13 -20 16 0 2 9 0 20 -6 11
-6 20 -13 20 -16z m-189 -21 c13 -16 12 -17 -3 -4 -17 13 -22 21 -14 21 2 0
10 -8 17 -17z m-741 4 c0 -2 -10 -12 -22 -23 l-23 -19 19 23 c18 21 26 27 26
19z m435 -217 c4 -7 -11 -10 -43 -8 -28 2 -48 6 -45 11 7 11 81 8 88 -3z m183
-97 c-10 -2 -28 -2 -40 0 -13 2 -5 4 17 4 22 1 32 -1 23 -4z"/>
<path d="M2004 2959 c-56 -10 -114 -23 -129 -29 l-28 -11 34 -35 c19 -20 46
-45 62 -56 l27 -20 39 31 c22 17 64 42 95 56 54 24 67 37 46 50 -12 8 -155
-41 -198 -67 -18 -11 -35 -18 -38 -15 -9 8 156 85 199 92 40 8 51 26 15 24
-13 0 -69 -9 -124 -20z"/>
<path d="M3210 2848 c0 -14 12 -43 26 -64 26 -38 26 -38 2 -17 l-23 22 5 -64
c3 -36 3 -65 0 -65 -3 0 -14 -30 -24 -66 -45 -158 -202 -328 -415 -452 -88
-51 -57 -49 57 3 70 33 73 33 67 12 -16 -52 -117 -196 -200 -285 -49 -53 -74
-84 -54 -69 20 15 39 27 44 27 4 0 5 -21 2 -46 -3 -32 -17 -65 -46 -106 l-41
-60 37 23 c21 13 68 42 104 65 36 23 80 49 98 59 l33 16 -40 -53 c-46 -62 -72
-112 -97 -187 -10 -30 -37 -97 -61 -148 -42 -90 -107 -263 -100 -263 11 0 119
189 160 280 27 58 55 119 63 137 8 18 36 49 61 69 28 22 38 28 26 13 -68 -78
-105 -166 -138 -333 -14 -68 -32 -141 -41 -162 -19 -47 -129 -382 -145 -444
l-12 -45 -23 85 c-42 161 -89 299 -98 293 -6 -4 -7 5 -3 23 4 18 3 24 -2 16
-6 -9 -15 9 -27 53 -13 48 -20 63 -27 53 -7 -9 -8 -1 -4 22 4 25 3 31 -4 20
-5 -8 -10 -11 -10 -7 -1 38 -33 263 -40 283 -21 55 -7 34 40 -59 56 -111 103
-184 154 -242 l35 -40 -17 51 c-20 59 -188 390 -202 399 -6 3 -10 11 -10 17 0
6 10 3 23 -8 12 -10 2 3 -23 29 -24 26 -50 45 -57 43 -7 -3 -15 -1 -18 4 -9
15 134 4 182 -14 l42 -15 -45 73 c-24 41 -75 103 -112 138 -83 78 -93 92 -58
78 46 -17 90 -42 151 -84 98 -68 96 -64 -37 66 -116 115 -168 184 -168 223 0
19 3 19 51 -6 70 -35 52 -16 -43 46 -152 101 -273 248 -318 389 -14 44 -13 44
-63 -25 -11 -15 -14 -17 -8 -4 5 11 20 34 33 52 18 24 23 41 20 68 -4 31 -6
34 -21 23 -14 -12 -15 -11 -2 5 8 10 15 28 16 40 1 12 5 38 9 57 l7 35 -20
-25 c-25 -30 -69 -137 -76 -182 -2 -18 -14 -82 -24 -143 -25 -133 -26 -265 -6
-374 l16 -82 -31 -42 c-16 -23 -64 -69 -105 -101 -42 -33 -83 -65 -93 -73 -15
-11 -14 -12 9 -4 21 8 15 -2 -28 -45 -30 -30 -52 -58 -49 -63 3 -5 -4 -21 -15
-35 -27 -34 -19 -43 16 -20 l28 18 -14 -22 c-8 -12 -17 -22 -22 -22 -4 0 -5
-5 -1 -12 4 -6 3 -8 -4 -4 -16 10 -40 -31 -64 -109 -18 -56 -22 -94 -21 -190
1 -255 67 -472 192 -629 17 -21 31 -42 31 -45 0 -4 -96 -12 -212 -19 -383 -22
-589 -65 -476 -101 115 -36 721 -91 1005 -91 45 0 84 -4 87 -8 2 -4 -12 -6
-32 -4 l-37 4 24 -18 c36 -26 91 -29 601 -29 377 0 485 3 523 14 29 8 46 19
43 26 -3 9 51 13 217 18 458 14 840 52 862 87 10 17 -39 39 -115 51 -41 6
-153 15 -250 19 -96 4 -141 8 -98 8 148 3 286 42 404 113 85 52 178 150 216
227 31 63 33 73 33 177 0 92 -4 120 -24 173 -40 105 -146 202 -222 202 -63 0
-64 -54 -4 -140 86 -123 80 -195 -27 -297 -36 -34 -131 -85 -188 -100 -50 -14
-243 -4 -237 11 101 264 99 493 -7 669 -19 31 -27 53 -20 50 22 -8 17 3 -18
44 -18 21 -24 31 -13 23 19 -14 19 -14 6 3 -7 9 -19 17 -25 17 -7 0 -25 14
-42 31 l-29 32 30 -19 c17 -10 33 -23 37 -29 5 -6 8 -6 8 2 0 6 -44 53 -99
103 -59 55 -109 111 -126 141 -26 48 -26 52 -14 118 15 84 7 267 -16 366 -9
39 -18 89 -20 112 -8 76 -68 205 -114 247 -21 19 -21 19 -21 -6z m88 -163 c-3
-3 -9 2 -12 12 -6 14 -5 15 5 6 7 -7 10 -15 7 -18z m-1458 -19 c0 -2 -8 -10
-17 -17 -16 -13 -17 -12 -4 4 13 16 21 21 21 13z m1485 -27 c9 -17 15 -33 13
-35 -3 -2 -12 12 -21 31 -21 43 -13 47 8 4z m-70 -9 c10 -11 16 -20 13 -20 -3
0 -13 9 -23 20 -10 11 -16 20 -13 20 3 0 13 -9 23 -20z m29 -362 c-25 -44 -74
-94 -128 -132 -69 -48 -86 -59 -86 -53 0 2 24 20 53 39 29 19 77 62 107 96 56
62 67 72 54 50z m-1284 -195 c0 -7 -56 35 -71 54 -8 9 5 2 29 -17 23 -18 42
-35 42 -37z m80 -49 c0 -2 -9 0 -20 6 -11 6 -20 13 -20 16 0 2 9 0 20 -6 11
-6 20 -13 20 -16z m1254 -96 c-19 -59 -59 -144 -72 -152 -4 -2 6 24 24 58 17
35 38 87 45 116 7 29 15 47 17 41 2 -6 -4 -35 -14 -63z m-1263 -121 c11 -21
15 -36 10 -33 -12 8 -41 71 -40 88 0 9 2 9 6 -2 3 -8 14 -32 24 -53z m1026 21
c-3 -8 -6 -5 -6 6 -1 11 2 17 5 13 3 -3 4 -12 1 -19z m264 -146 c-12 -44 -37
-122 -57 -174 -20 -51 -55 -147 -79 -213 -23 -66 -70 -185 -103 -265 -71 -170
-93 -241 -102 -330 l-7 -65 -2 60 c-1 79 26 174 104 365 98 236 236 618 249
685 6 33 12 50 14 38 2 -11 -6 -57 -17 -101z m-1801 85 c0 -2 -19 -21 -42 -42
l-43 -40 40 43 c36 39 45 47 45 39z m367 -457 c143 -366 188 -539 167 -637 -7
-32 -9 -19 -15 72 -7 127 -36 223 -151 520 -78 198 -168 465 -168 492 0 10 20
-40 44 -112 24 -71 79 -222 123 -335z m184 433 c13 -16 12 -17 -3 -4 -10 7
-18 15 -18 17 0 8 8 3 21 -13z m83 -39 c6 2 7 1 3 -2 -5 -2 4 -17 19 -33 15
-16 26 -29 23 -29 -3 0 -23 19 -44 43 -22 23 -34 37 -26 30 7 -6 19 -10 25 -9z
m106 -59 c13 -14 21 -25 18 -25 -2 0 -15 11 -28 25 -13 14 -21 25 -18 25 2 0
15 -11 28 -25z m847 3 c-3 -8 -6 -5 -6 6 -1 11 2 17 5 13 3 -3 4 -12 1 -19z
m-10 -60 c-3 -7 -5 -2 -5 12 0 14 2 19 5 13 2 -7 2 -19 0 -25z m-1696 -69
c-11 -30 -20 -49 -20 -43 -1 15 30 106 35 101 2 -2 -5 -28 -15 -58z m2216 -51
c-3 -8 -6 -5 -6 6 -1 11 2 17 5 13 3 -3 4 -12 1 -19z m-2240 -30 c-3 -8 -6 -5
-6 6 -1 11 2 17 5 13 3 -3 4 -12 1 -19z m-10 -40 c-3 -8 -6 -5 -6 6 -1 11 2
17 5 13 3 -3 4 -12 1 -19z m2186 -54 c-33 -69 -139 -182 -200 -213 -57 -28
-54 -22 6 17 66 43 157 143 189 208 14 29 28 52 30 50 2 -2 -9 -30 -25 -62z
m-1940 -179 c78 -77 63 -71 -21 9 -47 44 -103 129 -102 153 1 4 13 -14 27 -42
14 -27 58 -81 96 -120z m1413 -22 c-8 -15 -15 -25 -16 -21 0 12 23 58 27 54 3
-2 -2 -17 -11 -33z m1301 -40 c-2 -16 -4 -3 -4 27 0 30 2 43 4 28 2 -16 2 -40
0 -55z m-2667 -40 c0 -8 -9 0 -50 45 l-45 47 48 -45 c26 -24 47 -45 47 -47z
m390 42 c0 -5 -5 -3 -10 5 -5 8 -10 20 -10 25 0 6 5 3 10 -5 5 -8 10 -19 10
-25z m1360 2 c0 -2 -10 -12 -22 -23 l-23 -19 19 23 c18 21 26 27 26 19z
m-1340 -52 c0 -5 -5 -3 -10 5 -5 8 -10 20 -10 25 0 6 5 3 10 -5 5 -8 10 -19
10 -25z m921 8 c-12 -20 -14 -14 -5 12 4 9 9 14 11 11 3 -2 0 -13 -6 -23z
m-901 -58 c0 -5 -5 -3 -10 5 -5 8 -10 20 -10 25 0 6 5 3 10 -5 5 -8 10 -19 10
-25z m881 8 c-12 -20 -14 -14 -5 12 4 9 9 14 11 11 3 -2 0 -13 -6 -23z m797
-100 c-21 -2 -55 -2 -75 0 -21 2 -4 4 37 4 41 0 58 -2 38 -4z m442 -96 c0 -2
-10 -12 -22 -23 l-23 -19 19 23 c18 21 26 27 26 19z m-487 -34 c-7 -2 -21 -2
-30 0 -10 3 -4 5 12 5 17 0 24 -2 18 -5z m154 -49 c-3 -3 -12 -4 -19 -1 -8 3
-5 6 6 6 11 1 17 -2 13 -5z m-44 -11 c-7 -2 -19 -2 -25 0 -7 3 -2 5 12 5 14 0
19 -2 13 -5z m-80 -10 c-18 -2 -48 -2 -65 0 -18 2 -4 4 32 4 36 0 50 -2 33 -4z
m-156 -49 c-3 -3 -12 -4 -19 -1 -8 3 -5 6 6 6 11 1 17 -2 13 -5z m-1282 -28
c58 -27 78 -47 100 -100 20 -47 12 -89 -22 -116 -29 -23 -72 -28 -56 -7 17 20
24 64 15 88 -7 19 -10 15 -15 -26 -7 -49 -21 -75 -40 -75 -7 0 -7 4 1 12 7 7
12 16 12 21 0 5 -8 -1 -18 -13 -12 -15 -33 -24 -62 -27 -89 -10 -133 32 -113
107 5 22 7 37 2 35 -14 -9 -31 -76 -25 -100 6 -24 4 -25 -36 -24 -59 2 -76 13
-83 53 -9 45 23 116 65 146 78 55 190 66 275 26z m596 9 c84 -30 147 -115 133
-179 -9 -42 -22 -56 -52 -56 -20 0 -23 3 -14 12 17 17 15 75 -4 106 -9 15 -28
36 -42 47 -24 17 -24 15 6 -18 24 -29 32 -47 32 -77 0 -50 -8 -70 -29 -70 -13
0 -15 8 -13 43 3 33 -1 49 -18 67 -19 22 -20 23 -11 3 18 -36 13 -91 -9 -113
-15 -15 -33 -20 -70 -20 -54 0 -85 20 -94 62 -3 13 -7 32 -9 43 -3 11 -5 3 -6
-18 0 -21 4 -47 9 -58 10 -17 7 -19 -20 -19 -22 0 -41 10 -62 30 -27 28 -30
36 -25 77 6 60 31 92 97 126 62 32 133 36 201 12z m767 8 c-10 -2 -26 -2 -35
0 -10 3 -2 5 17 5 19 0 27 -2 18 -5z m-448 -28 c84 -44 94 -141 17 -168 -15
-6 -16 -3 -7 13 16 30 12 65 -11 94 -22 28 -77 61 -87 52 -3 -3 0 -6 6 -6 6 0
24 -11 40 -25 38 -32 50 -77 28 -110 -23 -36 -32 -31 -28 14 3 27 -2 47 -13
63 -13 17 -16 18 -11 5 24 -71 13 -107 -32 -106 -41 1 -57 11 -60 39 -1 14
-10 42 -19 63 -16 37 -16 38 7 55 14 9 31 20 40 24 27 12 100 8 130 -7z
m-1250 -9 c9 -12 7 -21 -10 -44 -12 -17 -25 -51 -27 -76 -6 -45 -6 -46 -42
-46 -46 0 -61 14 -61 58 0 44 14 69 53 92 18 11 25 20 17 20 -9 0 -31 -13 -50
-29 -32 -26 -35 -33 -35 -84 0 -50 -2 -54 -18 -45 -46 24 -41 94 10 138 29 26
41 30 92 30 39 0 63 -5 71 -14z"/>
<path d="M2126 591 c-15 -10 -37 -32 -47 -47 -21 -32 -26 -109 -8 -120 9 -5
10 3 5 29 -9 47 12 96 55 130 39 31 37 35 -5 8z"/>
<path d="M2352 480 c0 -14 2 -19 5 -12 2 6 2 18 0 25 -3 6 -5 1 -5 -13z"/>
<path d="M2553 1065 c0 -22 2 -30 4 -17 2 12 2 30 0 40 -3 9 -5 -1 -4 -23z"/>
</g>
</svg>